{"title":"Diamond Necklace - 2012 - MalayalaM - Blu-Ray - x264 - 1080p - D","uid":8097644,"size":8562427826,"categoryP":"video","categoryS":"hd___movies","magnet":"?xt=urn:btih:4db721a6a42e001f95a75421c8406b759c773e71&amp;dn=Diamond+Necklace+-+2012+-+MalayalaM+-+Blu-Ray+-+x264+-+1080p+-+D&amp;tr=udp%3A%2F%2Ftracker.openbittorrent.com%3A80&amp;tr=udp%3A%2F%2Fopen.demonii.com%3A1337&amp;tr=udp%3A%2F%2Ftracker.coppersurfer.tk%3A6969&amp;tr=udp%3A%2F%2Fexodus.desync.com%3A6969","seeders":0,"leechers":1,"uploader":"NewSky005","files":4,"time":1359852065,"description":"\nGeneral\nUnique ID : 233336723464529513699817904563533890655 (0xAF8B04AE4BE9F2F68326F29C1747C45F)\nComplete name : Diamond Necklace - 2012 - MalayalaM - Blu-Ray - x264 - 1080p - DTS - Chapters - [8GB] - RockStar - Team QMR.mkv\nFormat : Matroska\nFormat version : Version 2\nFile size : 7.95 GiB\nDuration : 2h 37mn\nOverall bit rate mode : Variable\nOverall bit rate : 7 236 Kbps\nEncoded date : UTC 2013-01-11 20:45:51\nWriting application : mkvmerge v5.8.0 ('No Sleep / Pillow') built on Sep 2 2012 15:37:04\nWriting library : libebml v1.2.3 + libmatroska v1.3.0\n\nVideo\nID : 1\nFormat : AVC\nFormat/Info : Advanced Video Codec\nFormat profile : &lt;a class=&quot;__cf_email__&quot; href=&quot;/cdn-cgi/l/email-protection&quot; data-cfemail=&quot;bff7d6d8d7fff38b918e&quot;&gt;[email&amp;#160;protected]&lt;/a&gt;&lt;script cf-hash='f9e31' type=&quot;text/javascript&quot;&gt;\n/* &lt;![CDATA[ */!function(){try{var t=&quot;currentScript&quot;in document?document.currentScript:function(){for(var t=document.getElementsByTagName(&quot;script&quot;),e=t.length;e--;)if(t[e].getAttribute(&quot;cf-hash&quot;))return t[e]}();if(t&amp;&amp;t.previousSibling){var e,r,n,i,c=t.previousSibling,a=c.getAttribute(&quot;data-cfemail&quot;);if(a){for(e=&quot;&quot;,r=parseInt(a.substr(0,2),16),n=2;a.length-n;n+=2)i=parseInt(a.substr(n,2),16)^r,e+=String.fromCharCode(i);e=document.createTextNode(e),c.parentNode.replaceChild(e,c)}}}catch(u){}}();/* ]]&gt; */&lt;/script&gt;\nFormat settings, CABAC : Yes\nFormat settings, ReFrames : 3 frames\nCodec ID : V_MPEG4/ISO/AVC\nDuration : 2h 37mn\nBit rate mode : Variable\nBit rate : 5 725 Kbps\nMaximum bit rate : 40.0 Mbps\nWidth : 1 920 pixels\nHeight : 816 pixels\nDisplay aspect ratio : 2.35:1\nFrame rate mode : Constant\nFrame rate : 24.000 fps\nColor space : YUV\nChroma subsampling : 4:2:0\nBit depth : 8 bits\nScan type : Progressive\nBits/(Pixel*Frame) : 0.152\nStream size : 6.13 GiB (77%)\nTitle : PuLi - Diamond Necklace - 1080p - DDR\nWriting library : x264 core 120 r2164 da19765\nEncoding settings : cabac=1 / ref=4 / deblock=1:-3:1 / analyse=0x3:0x113 / me=umh / subme=8 / psy=1 / psy_rd=1.00:0.00 / mixed_ref=1 / me_range=16 / chroma_me=1 / trellis=1 / 8x8dct=1 / cqm=0 / deadzone=21,11 / fast_pskip=1 / chroma_qp_offset=-2 / threads=12 / sliced_threads=0 / slices=4 / nr=0 / decimate=1 / interlaced=0 / bluray_compat=0 / constrained_intra=0 / bframes=3 / b_pyramid=1 / b_adapt=2 / b_bias=0 / direct=2 / weightb=1 / open_gop=0 / weightp=0 / keyint=23 / keyint_min=1 / scenecut=40 / intra_refresh=0 / rc_lookahead=23 / rc=2pass / mbtree=1 / bitrate=5725 / ratetol=1.0 / qcomp=0.60 / qpmin=10 / qpmax=51 / qpstep=4 / cplxblur=20.0 / qblur=0.5 / vbv_maxrate=40000 / vbv_bufsize=30000 / nal_hrd=vbr / ip_ratio=1.40 / aq=1:1.00\nLanguage : Malayalam\nDefault : Yes\nForced : No\n\nAudio\nID : 2\nFormat : DTS\nFormat/Info : Digital Theater Systems\nCodec ID : A_DTS\nDuration : 2h 37mn\nBit rate mode : Constant\nBit rate : 1 510 Kbps\nChannel(s) : 6 channels\nChannel positions : Front: L C R, Side: L R, LFE\nSampling rate : 48.0 KHz\nBit depth : 24 bits\nCompression mode : Lossy\nStream size : 1.66 GiB (21%)\nTitle : DTS 5.1 \nLanguage : Malayalam\nDefault : Yes\nForced : No\n\nText\nID : 3\nFormat : UTF-8\nCodec ID : S_TEXT/UTF8\nCodec ID/Info : UTF-8 Plain Text\nTitle : English SubTitles \nLanguage : English\nDefault : Yes\nForced : No &lt;a href=&quot;\nhttp://img152.imageshack.us/img152/9004/16926606.jpg&quot; rel=&quot;nofollow&quot; target=&quot;_NEW&quot;&gt;\nhttp://img152.imageshack.us/img152/9004/16926606.jpg&lt;/a&gt; &lt;a href=&quot;\nhttp://img46.imageshack.us/img46/8158/76181259.jpg&quot; rel=&quot;nofollow&quot; target=&quot;_NEW&quot;&gt;\nhttp://img46.imageshack.us/img46/8158/76181259.jpg&lt;/a&gt; &lt;a href=&quot;\nhttp://img541.imageshack.us/img541/7539/58013397.jpg&quot; rel=&quot;nofollow&quot; target=&quot;_NEW&quot;&gt;\nhttp://img541.imageshack.us/img541/7539/58013397.jpg&lt;/a&gt; &lt;a href=&quot;\nhttp://img202.imageshack.us/img202/3217/82576911.jpg&quot; rel=&quot;nofollow&quot; target=&quot;_NEW&quot;&gt;\nhttp://img202.imageshack.us/img202/3217/82576911.jpg&lt;/a&gt;","torrent":{"xt":"urn:btih:4db721a6a42e001f95a75421c8406b759c773e71","amp;dn":"Diamond+Necklace+-+2012+-+MalayalaM+-+Blu-Ray+-+x264+-+1080p+-+D","amp;tr":["udp%3A%2F%2Ftracker.openbittorrent.com%3A80","udp%3A%2F%2Fopen.demonii.com%3A1337","udp%3A%2F%2Ftracker.coppersurfer.tk%3A6969","udp%3A%2F%2Fexodus.desync.com%3A6969"],"infoHash":"4db721a6a42e001f95a75421c8406b759c773e71","infoHashBuffer":{"type":"Buffer","data":[77,183,33,166,164,46,0,31,149,167,84,33,200,64,107,117,156,119,62,113]},"announce":[],"urlList":[]}}